<?xml version="1.0" standalone="no"?>
<!DOCTYPE svg PUBLIC "-//W3C//DTD SVG 20010904//EN"
 "http://www.w3.org/TR/2001/REC-SVG-20010904/DTD/svg10.dtd">
<svg version="1.0" xmlns="http://www.w3.org/2000/svg"
 width="64.000000pt" height="64.000000pt" viewBox="0 0 64.000000 64.000000"
 preserveAspectRatio="xMidYMid meet">

<g transform="translate(0.000000,64.000000) scale(0.100000,-0.100000)"
fill="#000000" stroke="none">
<path d="M226 594 c-71 -22 -159 -112 -180 -184 -34 -115 -12 -206 73 -291 85
-85 176 -107 291 -73 75 22 162 109 184 184 34 115 12 206 -73 291 -85 84
-180 108 -295 73z m209 -42 c47 -24 95 -73 121 -122 26 -49 26 -171 0 -220
-26 -49 -74 -98 -121 -123 -31 -17 -58 -22 -115 -22 -85 0 -133 20 -186 77
-54 57 -69 95 -69 178 0 83 15 121 69 178 31 34 70 58 116 73 41 14 142 3 185
-19z"/>
<path d="M263 332 c-52 -3 -68 -14 -38 -25 18 -8 172 -8 191 0 47 18 -38 32
-153 25z"/>
</g>
</svg>
