<svg height="472pt" viewBox="0 -2 472.29181 472" width="472pt" xmlns="http://www.w3.org/2000/svg"><path d="m23.925781 334.738281 127.886719 127.886719c2.988281 2.996094 7.046875 4.679688 11.28125 4.679688 4.230469 0 8.289062-1.683594 11.277344-4.679688l115.921875-115.917969 5.917969-5.921875 5.601562-5.597656 20.992188-20.992188c-49.515626 28.636719-105.410157 44.433594-162.59375 45.949219-46.683594.890625-93.058594-7.757812-136.285157-25.40625zm0 0" fill="#00a468"/><path d="m411.734375 218.066406-2.5625-74.558594-.558594-16-1.761719-51.601562c-.289062-8.40625-7.035156-15.152344-15.4375-15.441406l-45.519531-1.597656-8.242187-.242188-8.078125-.320312-80.320313-2.796876c-4.425781-.109374-8.703125 1.597657-11.839844 4.71875l-232.722656 232.640626c-3.003906 3-4.691406 7.070312-4.691406 11.320312 0 4.246094 1.6875 8.316406 4.691406 11.320312l19.203125 19.199219c43.234375 17.664063 89.621094 26.320313 136.316407 25.4375 57.183593-1.515625 113.078124-17.3125 162.59375-45.949219l84.289062-84.289062c3.113281-3.136719 4.792969-7.421875 4.640625-11.839844zm-44.960937-83.601562c-9.367188 9.390625-24.570313 9.40625-33.960938.042968-9.390625-9.367187-9.40625-24.574218-.039062-33.960937l.960937-.722656c2.011719-1.878907 4.339844-3.398438 6.878906-4.476563 2.578125-1.03125 5.308594-1.625 8.078125-1.761718 9.894532-.480469 19.0625 5.175781 23.070313 14.234374 4.003906 9.058594 2.023437 19.648438-4.988281 26.644532zm0 0" fill="#0b7"/><path d="m464.589844 306.441406c-4.386719-.515625-8.363282 2.621094-8.882813 7.007813-4.152343 35.65625-31.542969 64.179687-67.003906 69.769531-35.457031 5.589844-70.296875-13.121094-85.21875-45.769531-.085937-.191407-.617187-1.230469-1.320313-2.617188l-.335937.339844-5.597656 5.597656-5.898438 5.894531c18.804688 38.117188 60.453125 59.308594 102.335938 52.074219 41.882812-7.238281 74.003906-41.175781 78.929687-83.390625.253906-2.113281-.34375-4.238281-1.65625-5.910156-1.316406-1.667969-3.242187-2.746094-5.351562-2.996094zm0 0" fill="#ff9811"/><path d="m400.210938.144531c-27.519532 0-52.636719 15.6875-64.707032 40.421875-12.074218 24.734375-8.988281 54.1875 7.949219 75.882813 1.726563 2.347656 4.589844 3.570312 7.476563 3.195312 2.890624-.375 5.347656-2.292969 6.414062-5.003906s.574219-5.785156-1.28125-8.03125c-3.035156-3.980469-5.523438-8.34375-7.402344-12.984375-4.742187-10.957031-5.722656-23.175781-2.792968-34.75 6.648437-27.335938 32.550781-45.496094 60.515624-42.433594 27.964844 3.066406 49.316407 26.402344 49.886719 54.53125.570313 28.128906-19.8125 52.3125-47.632812 56.507813l.550781 16.058593c.273438 0 .535156 0 .800781-.050781 37.546875-5.101562 64.714844-38.4375 62.136719-76.242187-2.578125-37.804688-34.019531-67.140625-71.914062-67.101563zm0 0" fill="#ff9811"/><g fill="#f1f2f2"><path d="m146.125 219.347656c-3.140625-3.035156-8.128906-2.988281-11.214844.097656-3.085937 3.082032-3.128906 8.074219-.097656 11.210938l101.824219 101.832031c3.140625 3.035157 8.128906 2.988281 11.214843-.097656 3.085938-3.085937 3.128907-8.074219.097657-11.210937zm0 0"/><path d="m112.210938 253.296875c-2.007813-2.078125-4.980469-2.914063-7.777344-2.179687-2.796875.730468-4.984375 2.914062-5.714844 5.710937s.101562 5.773437 2.183594 7.78125l101.796875 101.816406c2.011719 2.078125 4.984375 2.914063 7.78125 2.183594 2.796875-.734375 4.980469-2.917969 5.714843-5.714844.730469-2.796875-.101562-5.773437-2.183593-7.78125zm0 0"/></g></svg>